<svg viewBox="0 0 95 221" fill="none" xmlns="http://www.w3.org/2000/svg">
<rect width="109.023" height="16.2908" transform="matrix(-0.86779 -0.496931 0.00353946 0.999994 94.832 116.833)" fill="#F0B9AD"/>
<rect width="109.023" height="15.0377" transform="matrix(-0.86779 -0.496931 0.00353946 0.999994 94.7188 85.5049)" fill="#F0BB43"/>
<rect width="109.023" height="16.2908" transform="matrix(-0.86779 -0.496931 0.00353946 0.999994 94.8828 131.871)" fill="#B79258"/>
<rect width="109.023" height="16.2908" transform="matrix(-0.86779 -0.496931 0.00353946 0.999994 94.9414 148.161)" fill="#1B1B1B"/>
<rect width="109.023" height="16.2908" transform="matrix(-0.86779 -0.496931 0.00353946 0.999994 94.7734 100.542)" fill="#3B7EA5"/>
<rect width="109.023" height="16.2908" transform="matrix(-0.86779 -0.496931 0.0035397 0.999994 94.6094 54.177)" fill="#D54335"/>
<rect width="109.023" height="15.0377" transform="matrix(-0.86779 -0.496931 0.00353946 0.999994 94.668 70.4668)" fill="#5E308A"/>
<rect width="109.023" height="16.2908" transform="matrix(0.86779 -0.496931 -0.00353937 0.999994 0.167969 173.363)" fill="#F0B9AD"/>
<rect width="109.023" height="15.0377" transform="matrix(0.86779 -0.496931 -0.00353937 0.999994 0.28125 142.035)" fill="#F0BB43"/>
<rect width="109.023" height="16.2908" transform="matrix(0.86779 -0.496931 -0.00353937 0.999994 0.117188 188.402)" fill="#B79258"/>
<rect width="109.023" height="16.2908" transform="matrix(0.86779 -0.496931 -0.00353937 0.999994 0.0585938 204.691)" fill="#1B1B1B"/>
<rect width="109.023" height="16.2908" transform="matrix(0.86779 -0.496931 -0.00353937 0.999994 0.226562 157.072)" fill="#3B7EA5"/>
<rect width="109.023" height="16.2908" transform="matrix(0.86779 -0.496932 -0.00353961 0.999994 0.390625 110.706)" fill="#D54335"/>
<rect width="109.023" height="15.0377" transform="matrix(0.86779 -0.496931 -0.00353937 0.999994 0.332031 126.997)" fill="#5E308A"/>
</svg>
