<svg width="64" height="64" viewBox="0 0 64 64" fill="none" xmlns="http://www.w3.org/2000/svg">
<g clip-path="url(#clip0_1_2)">
<path d="M64 18.1461L37.0164 33.8366L37 38.5547L63.9835 22.8641L64 18.1461Z" fill="#F0B9AD"/>
<path d="M64 9.07306L37.0164 24.7636L37.0013 29.1187L63.9848 13.4282L64 9.07306Z" fill="#F0BB43"/>
<path d="M64 22.5016L37.0164 38.1921L37 42.9102L63.9835 27.2196L64 22.5016Z" fill="#B79258"/>
<path d="M64 27.2194L37.0164 42.9099L37 47.628L63.9835 31.9374L64 27.2194Z" fill="#1B1B1B"/>
<path d="M64 13.4281L37.0164 29.1186L37 33.8367L63.9835 18.1461L64 13.4281Z" fill="#3B7EA5"/>
<path d="M64 6.22542e-05L37.0164 15.6906L37 20.4087L63.9835 4.71812L64 6.22542e-05Z" fill="#D54335"/>
<path d="M64 4.71777L37.0164 20.4083L37.0013 24.7634L63.9848 9.0729L64 4.71777Z" fill="#5E308A"/>
<path d="M36.9998 34.5181L64 50.2087L64.0165 54.9268L37.0162 39.2362L36.9998 34.5181Z" fill="#F0B9AD"/>
<path d="M36.9998 25.4451L64 41.1357L64.0152 45.4908L37.015 29.8003L36.9998 25.4451Z" fill="#F0BB43"/>
<path d="M36.9998 38.8737L64 54.5642L64.0165 59.2823L37.0162 43.5917L36.9998 38.8737Z" fill="#B79258"/>
<path d="M36.9998 43.5914L64 59.2819L64.0165 64L37.0162 48.3094L36.9998 43.5914Z" fill="#1B1B1B"/>
<path d="M36.9998 29.8001L64 45.4906L64.0165 50.2087L37.0162 34.5181L36.9998 29.8001Z" fill="#3B7EA5"/>
<path d="M36.9998 16.3719L64 32.0624L64.0165 36.7805L37.0162 21.0899L36.9998 16.3719Z" fill="#D54335"/>
<path d="M36.9998 21.0898L64 36.7804L64.0152 41.1355L37.015 25.445L36.9998 21.0898Z" fill="#5E308A"/>
</g>
<defs>
<clipPath id="clip0_1_2">
<rect width="64" height="64" fill="none"/>
</clipPath>
</defs>
</svg>
