<svg viewBox="0 0 95 221" fill="none" xmlns="http://www.w3.org/2000/svg"><path fill="#F0B9AD" d="M94.832 116.833L.222 62.656l.059 16.291 94.609 54.177z"/><path fill="#F0BB43" d="M94.719 85.505L.109 31.328l.054 15.038 94.609 54.177z"/><path fill="#B79258" d="M94.883 131.871L.273 77.694l.058 16.291 94.61 54.177z"/><path fill="#1B1B1B" d="M94.941 148.161L.332 93.984l.058 16.291L95 164.452z"/><path fill="#3B7EA5" d="M94.773 100.542L.164 46.365l.058 16.291 94.61 54.177z"/><path fill="#D54335" d="M94.61 54.177L0 0l.058 16.291 94.61 54.177z"/><path fill="#5E308A" d="M94.668 70.467L.058 16.29l.054 15.038 94.61 54.177z"/><path fill="#F0B9AD" d="M.168 173.363l94.609-54.177-.058 16.291L.11 189.654z"/><path fill="#F0BB43" d="M.281 142.035l94.61-54.177-.054 15.038L.228 157.073z"/><path fill="#B79258" d="M.117 188.402l94.61-54.177-.058 16.291-94.61 54.177z"/><path fill="#1B1B1B" d="M.059 204.691l94.609-54.177-.058 16.291L0 220.982z"/><path fill="#3B7EA5" d="M.227 157.072l94.609-54.177-.058 16.291-94.61 54.177z"/><path fill="#D54335" d="M.39 110.706L95 56.529l-.058 16.29L.333 126.998z"/><path fill="#5E308A" d="M.332 126.997l94.61-54.177-.054 15.038-94.61 54.177z"/></svg>