<svg viewBox="0 0 356 213" fill="none" xmlns="http://www.w3.org/2000/svg"><path d="M19.713 134.965h23.964c12.609 0 21.96 7.097 21.96 19.956 0 12.609-9.351 20.625-22.628 20.625H31.82v18.704H19.713v-59.285zM31.82 164.44h11.857c5.678 0 9.853-3.256 9.853-9.185 0-5.928-4.175-9.268-9.853-9.268H31.82v18.453zM116.941 194.25h-14.779l-20.124-25.217c.668 3.674.668 11.356.668 25.217H70.6v-59.285h24.298c12.943 0 20.959 6.68 20.959 18.286 0 13.193-10.521 18.203-18.37 18.454 3.173 3.34 8.35 9.519 19.455 22.545zm-13.193-39.913c0-5.094-3.423-8.434-9.686-8.434H82.706v17.118h11.356c6.263 0 9.686-3.424 9.686-8.684zM148.23 195.085c-17.535 0-30.31-12.859-30.31-30.478 0-17.618 12.775-30.477 30.31-30.477 17.535 0 30.311 12.859 30.311 30.477 0 17.619-12.776 30.478-30.311 30.478zm0-11.356c10.772 0 18.203-8.601 18.203-19.122 0-10.521-7.431-19.121-18.203-19.121-10.688 0-18.203 8.6-18.203 19.121 0 10.521 7.515 19.122 18.203 19.122zM176.42 189.741l3.841-10.02c2.589 2.004 5.094 3.34 7.849 3.423 4.509 0 7.432-2.505 7.432-10.521v-37.658h12.107v38.326c0 14.696-8.266 21.794-18.37 21.794-7.014 0-11.272-3.591-12.859-5.344zM252.121 134.965v10.938h-26.052v13.11h21.459v10.688h-21.459v13.61h26.052v10.939h-38.16v-59.285h38.16zM284.24 195.085c-16.533 0-29.726-13.193-29.726-30.478 0-17.284 13.193-30.477 29.726-30.477 9.352 0 15.114 3.256 17.285 4.926v11.774c-1.587-1.754-6.931-5.678-15.782-5.678-10.437 0-19.121 8.016-19.121 19.455 0 11.44 8.684 19.456 19.121 19.456 8.851 0 14.195-4.008 15.782-5.678v11.773c-2.171 1.67-7.933 4.927-17.285 4.927zM332.623 194.25h-12.107v-48.347h-15.531v-10.938h43.169v10.938h-15.531v48.347zM47.163 66.75H35.056V18.404H19.525V7.465h43.17v10.939H47.162V66.75zM106.364 32.014V7.465h12.107V66.75h-12.107V42.702H80.813V66.75H68.705V7.465h12.108v24.55h25.551zM163.6 7.465v10.939h-26.052v13.11h21.46V42.2h-21.46v13.61H163.6v10.94h-38.159V7.464H163.6zM126.902 72.568l3.985 10.467h-26.676l4.775 12.546h21.974l3.893 10.228H112.88l4.958 13.024h26.676l3.984 10.468h-39.073L87.828 72.568h39.074zM191.639 129.301h-37.791l-21.596-56.733h12.397l17.612 46.265h25.393l3.985 10.468zM217.716 129.301h-20.948l-21.596-56.733h20.947c19.409 0 35.611 12.465 41.664 28.366 6.053 15.902-.659 28.367-20.067 28.367zm-26.162-46.266l13.627 35.798h8.55c10.859 0 16.217-5.913 11.655-17.899-4.563-11.986-14.423-17.899-25.282-17.899h-8.55zM271.611 72.568l3.984 10.467h-26.676l4.776 12.546h21.973l3.894 10.228h-21.974l4.958 13.024h26.676l3.985 10.468h-39.073l-21.597-56.733h39.074zM346.009 129.301h-15.133l-29.792-24.132c2.023 3.516 4.821 10.868 9.87 24.132h-12.397L276.96 72.568h24.881c13.252 0 23.894 6.392 28.122 17.5 4.806 12.624-4.142 17.419-12.088 17.658 4.466 3.197 12.018 9.11 28.134 21.575zm-28.048-38.195c-1.856-4.874-6.578-8.07-12.99-8.07h-11.628l6.235 16.38h11.628c6.413 0 8.671-3.276 6.755-8.31z" fill="#000"/></svg>