<svg xmlns="http://www.w3.org/2000/svg" viewBox="0 0 16 16.13">
      <path d="M8.12,10.87a2.75,2.75,0,1,1,2.75-2.75,2.77,2.77,0,0,1-2.75,2.75M8.12,4a4.13,4.13,0,1,0,4.13,4.12A4.15,4.15,0,0,0,8.12,4"/>
      <path d="M8.12,0H4.75a4.36,4.36,0,0,0-2,.38,4.3,4.3,0,0,0-1.37,1,3.78,3.78,0,0,0-1,1.49A16.41,16.41,0,0,0,0,4.75V11.5a4.39,4.39,0,0,0,.38,2,5.13,5.13,0,0,0,.87,1.38,3.24,3.24,0,0,0,1.37.87,4.39,4.39,0,0,0,2,.38h6.75a4.36,4.36,0,0,0,2-.38,5.39,5.39,0,0,0,1.38-.87,3.18,3.18,0,0,0,.87-1.38,4.36,4.36,0,0,0,.38-2V4.75a4.36,4.36,0,0,0-.38-2,4.9,4.9,0,0,0-.87-1.38A3.21,3.21,0,0,0,13.37.5a4.33,4.33,0,0,0-2-.38A17.7,17.7,0,0,0,8.12,0m0,1.5h3.26a3.68,3.68,0,0,1,1.5.25,2.33,2.33,0,0,1,.87.63,2.2,2.2,0,0,1,.62.87,3.51,3.51,0,0,1,.25,1.5v6.5a3.51,3.51,0,0,1-.25,1.5,2.2,2.2,0,0,1-.62.87,2.33,2.33,0,0,1-.87.63,3.71,3.71,0,0,1-1.5.25H4.88a3.68,3.68,0,0,1-1.5-.25,2.28,2.28,0,0,1-.88-.63,2.2,2.2,0,0,1-.62-.87,3.51,3.51,0,0,1-.25-1.5V4.75a3.51,3.51,0,0,1,.25-1.5,2.2,2.2,0,0,1,.62-.87,2.28,2.28,0,0,1,.88-.63,3.68,3.68,0,0,1,1.5-.25H8.12"/>
      <path d="M13.37,3.75a1,1,0,0,1-1,1,.89.89,0,0,1-.87-1,1,1,0,0,1,1-1,1.05,1.05,0,0,1,.87,1"/>
</svg>
