<svg viewBox="0 0 16 16" fill="none" xmlns="http://www.w3.org/2000/svg">
<path fill-rule="evenodd" clip-rule="evenodd" d="M3.582 15.985H0.263V5.317H3.582V15.985Z" />
<path fill-rule="evenodd" clip-rule="evenodd" d="M16 15.985H12.685V10.797C12.685 9.56 12.663 7.969 10.962 7.969C9.237 7.969 8.974 9.317 8.974 10.709V15.985H5.662V5.317H8.84V6.776H8.886C9.328 5.937 10.41 5.052 12.023 5.052C15.38 5.052 16 7.261 16 10.134V15.985Z"/>
<path fill-rule="evenodd" clip-rule="evenodd" d="M1.924 3.86C0.859 3.86 0 2.998 0 1.937C0 0.876 0.859 0.0139999 1.924 0.0139999C2.984 0.0139999 3.845 0.876 3.845 1.937C3.845 2.998 2.984 3.86 1.924 3.86Z"/>
</svg>
