<svg width="19px" height="19px" viewBox="0 0 19 19">
<path d="M4.9,6.9C5.2,6.6,5.6,6.3,6,6c2.3-1.3,5.2-0.6,6.7,1.6l-1.8,1.8c-0.5-1.2-1.8-1.8-3-1.5C7.4,8,6.9,8.2,6.6,8.6
	L3.2,12c-1,1-1,2.7,0,3.8c1,1,2.7,1,3.8,0l1-1.1c1,0.4,2,0.5,3,0.5l-2.3,2.3c-2,2-5.2,2-7.2,0s-2-5.2,0-7.2L4.9,6.9z M10.3,1.4
	L7.9,3.8c1-0.1,2,0.1,3,0.5l1-1c1-1,2.7-1,3.8,0c1,1,1,2.7,0,3.8l-3.4,3.4c-1,1-2.7,1-3.8,0C8.3,10.3,8.1,10,7.9,9.7l-1.8,1.8
	c0.2,0.3,0.4,0.5,0.6,0.8c0.6,0.6,1.5,1.1,2.4,1.3c1.2,0.3,2.5,0.1,3.7-0.5c0.4-0.2,0.8-0.5,1.1-0.9l3.4-3.4c2-2,2-5.2,0-7.2
	C15.5-0.5,12.3-0.5,10.3,1.4z"/>
</svg>
