<svg width="96" height="32" viewBox="0 0 96 32" fill="none" xmlns="http://www.w3.org/2000/svg">
<path d="M91.8364 31.2059H89.0213V19.9647H85.4102V17.4213H95.4476V19.9647H91.8364V31.2059Z" fill="black"/>
<path d="M80.5874 31.3999C76.7433 31.3999 73.6758 28.3324 73.6758 24.3135C73.6758 20.2946 76.7433 17.2271 80.5874 17.2271C82.7619 17.2271 84.1015 17.9842 84.6063 18.3725V21.11C84.2374 20.7023 82.9949 19.7898 80.9369 19.7898C78.51 19.7898 76.4909 21.6536 76.4909 24.3135C76.4909 26.9733 78.51 28.8372 80.9369 28.8372C82.9949 28.8372 84.2374 27.9052 84.6063 27.5169V30.2544C84.1015 30.6427 82.7619 31.3999 80.5874 31.3999Z" fill="black"/>
<path d="M73.1186 17.4213V19.9647H67.0612V23.0128H72.0508V25.4979H67.0612V28.6626H73.1186V31.2059H64.2461V17.4213H73.1186Z" fill="black"/>
<path d="M55.5156 30.157L56.4087 27.8272C57.0106 28.2932 57.593 28.6038 58.2337 28.6232C59.2821 28.6232 59.9616 28.0408 59.9616 26.177V17.4208H62.7767V26.3323C62.7767 29.7493 60.8547 31.3996 58.5055 31.3996C56.8747 31.3996 55.8845 30.5647 55.5156 30.157Z" fill="black"/>
<path d="M48.9616 31.4001C44.8845 31.4001 41.9141 28.4102 41.9141 24.3137C41.9141 20.2171 44.8845 17.2272 48.9616 17.2272C53.0387 17.2272 56.0092 20.2171 56.0092 24.3137C56.0092 28.4102 53.0387 31.4001 48.9616 31.4001ZM48.9616 28.7597C51.4661 28.7597 53.194 26.7599 53.194 24.3137C53.194 21.8674 51.4661 19.8677 48.9616 19.8677C46.4765 19.8677 44.7292 21.8674 44.7292 24.3137C44.7292 26.7599 46.4765 28.7597 48.9616 28.7597Z" fill="black"/>
<path d="M41.365 31.2057H37.9286L33.2497 25.3424C33.405 26.1966 33.405 27.9828 33.405 31.2057H30.5898V17.4211H36.2395C39.2488 17.4211 41.1126 18.9743 41.1126 21.6729C41.1126 24.7405 38.6664 25.9054 36.8414 25.9636C37.5791 26.7402 38.7829 28.1769 41.365 31.2057ZM38.2975 21.9253C38.2975 20.741 37.5015 19.9644 36.0454 19.9644H33.405V23.9445H36.0454C37.5015 23.9445 38.2975 23.1485 38.2975 21.9253Z" fill="black"/>
<path d="M18.7578 17.4211H24.3298C27.2615 17.4211 29.4359 19.0713 29.4359 22.0612C29.4359 24.9929 27.2615 26.8567 24.1745 26.8567H21.5729V31.2057H18.7578V17.4211ZM21.5729 24.2745H24.3298C25.65 24.2745 26.6208 23.5174 26.6208 22.1389C26.6208 20.7604 25.65 19.9838 24.3298 19.9838H21.5729V24.2745Z" fill="black"/>
<path d="M78.2875 16.2608C74.1869 16.2608 71.0699 13.7059 70.0083 11.0409H73.5197C74.1872 12.6708 75.7244 13.5517 77.2798 13.5517C78.7174 13.5517 79.3059 12.869 78.9453 11.9219C77.8806 9.12478 70.086 9.69742 68.1409 4.58768C67.1516 1.98877 68.6794 0.182739 71.9315 0.182739C75.3487 0.182739 78.3504 2.18699 79.5445 5.1383L76.1374 5.2264C75.4966 3.72872 74.306 2.89178 73.0099 2.89178C71.8551 2.89178 71.2331 3.48645 71.602 4.45554C72.8009 7.60507 80.4969 6.52586 82.4755 11.7237C83.5571 14.5649 81.6339 16.2608 78.2875 16.2608Z" fill="black"/>
<path d="M71.5475 16.0409H67.3763L59.1649 9.38941C59.7223 10.3585 60.4936 12.3848 61.8853 16.0409H58.4682L52.5156 0.40332H59.3734C63.0262 0.40332 65.9593 2.1653 67.1246 5.22674C68.4493 8.70664 65.983 10.0281 63.7929 10.0942C65.0238 10.9752 67.1053 12.605 71.5475 16.0409ZM63.8165 5.51306C63.3051 4.16955 62.0035 3.28856 60.2361 3.28856H57.031L58.7497 7.80363H61.9548C63.7222 7.80363 64.3447 6.90061 63.8165 5.51306Z" fill="black"/>
<path d="M51.0432 0.40332L52.1415 3.28856H44.7888L46.1051 6.74644H52.1617L53.2348 9.56561H47.1783L48.5449 13.1556H55.8975L56.9958 16.0409H46.226L40.2734 0.40332H51.0432Z" fill="black"/>
<path d="M36.1873 16.0404H30.4135L24.4609 0.402832H30.2347C35.5842 0.402832 40.05 3.83869 41.7184 8.22161C43.3868 12.6045 41.5368 16.0404 36.1873 16.0404ZM28.9763 3.28807L32.7324 13.1551H35.089C38.0819 13.1551 39.5589 11.5253 38.3013 8.22161C37.0437 4.9179 34.3259 3.28807 31.333 3.28807H28.9763Z" fill="black"/>
<path d="M29.0017 16.0404H18.5854L12.6328 0.402832H16.0499L20.9042 13.1551H27.9034L29.0017 16.0404Z" fill="black"/>
<path d="M11.1565 0.402832L12.2548 3.28807H4.90213L6.21841 6.74595H12.2749L13.3481 9.56512H7.29155L8.65813 13.1551H16.0108L17.1091 16.0404H6.33932L0.386719 0.402832H11.1565Z" fill="black"/>
</svg>
