<svg viewBox="0 0 29 26" fill="none" xmlns="http://www.w3.org/2000/svg"><path d="M11.367 25.68H.007V13.44c-.053-1.76.187-3.413.72-4.96.587-1.547 1.387-2.907 2.4-4.08a12.615 12.615 0 013.6-2.88C8.167.72 9.714.213 11.367 0v5.28c-2.026.693-3.413 1.733-4.16 3.12-.746 1.333-1.12 2.987-1.12 4.96h5.28v12.32zm17.04 0h-11.36V13.44c-.053-1.76.187-3.413.72-4.96.587-1.547 1.387-2.907 2.4-4.08a12.616 12.616 0 013.6-2.88c1.44-.8 2.987-1.307 4.64-1.52v5.28c-2.026.693-3.413 1.733-4.16 3.12-.746 1.333-1.12 2.987-1.12 4.96h5.28v12.32z" fill="#1B1B1B"/></svg>