<svg xmlns="http://www.w3.org/2000/svg" xmlns:xlink="http://www.w3.org/1999/xlink"><symbol id="sprite-calendar" viewBox="1 0 23 22" preserveAspectRatio="xMidYMid meet"><path d="M2 2v17h21V2H2zm2 15V5h17v12H4z"/><path d="M6 7h3v3H6zM11 7h3v3h-3zM16 7h3v3h-3zM6 12h3v3H6zM11 12h3v3h-3zM16 12h3v3h-3z"/></symbol><symbol id="sprite-facebook" viewBox="0 0 9 18" preserveAspectRatio="xMidYMid meet"><path d="M2 6V4.2a4.92 4.92 0 01.6-2.85A3.58 3.58 0 015.55 0 14.14 14.14 0 019 .3l-.45 2.85a4.65 4.65 0 00-1.5-.3c-.75 0-1.35.3-1.35 1V6h3.15L8.4 8.7H5.55V18H2V8.7H0V6z"/></symbol><symbol id="sprite-instagram" viewBox="0 0 16 16.13" preserveAspectRatio="xMidYMid meet"><path d="M8.12 10.87a2.75 2.75 0 112.75-2.75 2.77 2.77 0 01-2.75 2.75m0-6.87a4.13 4.13 0 104.13 4.12A4.15 4.15 0 008.12 4"/><path d="M8.12 0H4.75a4.36 4.36 0 00-2 .38 4.3 4.3 0 00-1.37 1 3.78 3.78 0 00-1 1.49A16.41 16.41 0 000 4.75v6.75a4.39 4.39 0 00.38 2 5.13 5.13 0 00.87 1.38 3.24 3.24 0 001.37.87 4.39 4.39 0 002 .38h6.75a4.36 4.36 0 002-.38 5.39 5.39 0 001.38-.87 3.18 3.18 0 00.87-1.38 4.36 4.36 0 00.38-2V4.75a4.36 4.36 0 00-.38-2 4.9 4.9 0 00-.87-1.38A3.21 3.21 0 0013.37.5a4.33 4.33 0 00-2-.38A17.7 17.7 0 008.12 0m0 1.5h3.26a3.68 3.68 0 011.5.25 2.33 2.33 0 01.87.63 2.2 2.2 0 01.62.87 3.51 3.51 0 01.25 1.5v6.5a3.51 3.51 0 01-.25 1.5 2.2 2.2 0 01-.62.87 2.33 2.33 0 01-.87.63 3.71 3.71 0 01-1.5.25h-6.5a3.68 3.68 0 01-1.5-.25 2.28 2.28 0 01-.88-.63 2.2 2.2 0 01-.62-.87 3.51 3.51 0 01-.25-1.5v-6.5a3.51 3.51 0 01.25-1.5 2.2 2.2 0 01.62-.87 2.28 2.28 0 01.88-.63 3.68 3.68 0 011.5-.25h3.24"/><path d="M13.37 3.75a1 1 0 01-1 1 .89.89 0 01-.87-1 1 1 0 011-1 1.05 1.05 0 01.87 1"/></symbol><symbol id="sprite-link" preserveAspectRatio="xMidYMid meet"><path d="M4.9 6.9c.3-.3.7-.6 1.1-.9 2.3-1.3 5.2-.6 6.7 1.6l-1.8 1.8c-.5-1.2-1.8-1.8-3-1.5-.5.1-1 .3-1.3.7L3.2 12c-1 1-1 2.7 0 3.8 1 1 2.7 1 3.8 0l1-1.1c1 .4 2 .5 3 .5l-2.3 2.3c-2 2-5.2 2-7.2 0s-2-5.2 0-7.2l3.4-3.4zm5.4-5.5L7.9 3.8c1-.1 2 .1 3 .5l1-1c1-1 2.7-1 3.8 0 1 1 1 2.7 0 3.8l-3.4 3.4c-1 1-2.7 1-3.8 0-.2-.2-.4-.5-.6-.8l-1.8 1.8c.2.3.4.5.6.8.6.6 1.5 1.1 2.4 1.3 1.2.3 2.5.1 3.7-.5.4-.2.8-.5 1.1-.9l3.4-3.4c2-2 2-5.2 0-7.2-1.8-2.1-5-2.1-7-.2z"/></symbol><symbol id="sprite-linkedin" viewBox="0 0 16 16" preserveAspectRatio="xMidYMid meet"><path clip-rule="evenodd" d="M3.582 15.985H.263V5.317h3.319v10.668zM16 15.985h-3.315v-5.188c0-1.237-.022-2.828-1.723-2.828-1.725 0-1.988 1.348-1.988 2.74v5.276H5.662V5.317H8.84v1.459h.046c.442-.839 1.524-1.724 3.137-1.724C15.38 5.052 16 7.261 16 10.134v5.851zM1.924 3.86A1.923 1.923 0 111.921.015a1.923 1.923 0 01.003 3.845z"/></symbol><symbol id="sprite-message" preserveAspectRatio="xMidYMid meet"><path d="M5.7 13.7C4.5 14.6 3.3 15 2 15c.8-.8 1.3-1.6 1.5-2.2C1.4 11.6 0 9.4 0 7c0-3.9 3.6-7 8-7s8 3.1 8 7-3.6 7-8 7c-.8 0-1.6-.1-2.3-.3z"/></symbol><symbol id="sprite-pin" preserveAspectRatio="xMidYMid meet"><path d="M7 0C3.3 0 0 3 0 6.8c0 2.2 1.1 4.7 2.8 7.8 1.2 2 2.6 4.3 4.2 6.9 4-6.4 7-10.9 7-14.6C14 3 10.7 0 7 0zm0 9.7C5.5 9.7 4.3 8.5 4.3 7c0-1.5 1.2-2.7 2.7-2.7S9.7 5.5 9.7 7c0 1.5-1.2 2.7-2.7 2.7z"/></symbol><symbol id="sprite-print" preserveAspectRatio="xMidYMid meet"><path d="M21 6h-2v1h2v8H1V7h2V6H0v10h22V6z"/><path d="M3 12h1v1H3zM5 12h1v1H5zM7 12h1v1H7zM17 9V0H5v9H3v1h16V9h-2zM6 9V1h10v8H6z"/></symbol><symbol id="sprite-share" preserveAspectRatio="xMidYMid meet"><path d="M0 10.5h1.4V16H0z"/><path d="M0 14.6h18V16H0z"/><path d="M16.6 10.5H18V16h-1.4zM9 .6L12.7 4H5.3z"/><path d="M8.3 3.2h1.5V10H8.3z"/></symbol><symbol id="sprite-twitter" viewBox="0 0 18 15" preserveAspectRatio="xMidYMid meet"><path d="M18 1.7c-.7.3-1.4.5-2.1.6.8-.5 1.3-1.2 1.6-2-.7.4-1.5.7-2.3.9C14.5.4 13.5 0 12.5 0c-2 0-3.7 1.7-3.7 3.7 0 .3 0 .6.1.8C5.8 4.4 3.1 2.9 1.3.7.9 1.2.8 1.9.8 2.5c0 1.3.7 2.4 1.6 3.1-.6 0-1.2-.2-1.7-.5 0 1.8 1.3 3.3 3 3.6-.3.1-.6.1-1 .1-.2 0-.5 0-.7-.1.5 1.5 1.8 2.5 3.4 2.6-1.3 1-2.9 1.6-4.6 1.6-.2.1-.5.1-.8.1 1.6 1 3.6 1.7 5.7 1.7 6.8 0 10.5-5.6 10.5-10.5v-.5c.7-.6 1.3-1.2 1.8-2"/></symbol><symbol id="sprite-warn" preserveAspectRatio="xMidYMid meet"><path d="M8.8 5.4h1.1v5.5H8.8zM8.8 12.3h1.1v1.1H8.8z"/><path d="M18.8 16H0L9.4 0l9.4 16zM1.9 14.9h14.9L9.4 2.2 1.9 14.9z"/></symbol><symbol id="sprite-youtube" viewBox="0 0 17 12.41" preserveAspectRatio="xMidYMid meet"><path d="M13.94.09C11.33 0 5.67 0 3.06.09S0 1.9 0 6.2s.34 5.9 3.06 6.12 8.27.12 10.88 0S17 10.51 17 6.2 16.66.31 13.94.09zM6.35 8.93V3.48L12 6.2 6.35 8.93z"/></symbol></svg>