<svg xmlns="http://www.w3.org/2000/svg" viewBox="0 0 112 58" fill="none">
    <rect x="0.265625" width="111" height="57.9442" fill=""/>
    <path fill-rule="evenodd" clip-rule="evenodd" d="M29.2931 50C40.8911 50 50.2931 40.598 50.293 29C50.2929 17.402 40.8908 8 29.2928 8C17.6948 8 8.29287 17.402 8.29297 29C8.29306 40.598 17.6952 50 29.2931 50ZM29.293 35.0142C31.8101 35.0142 39.3615 39.0686 39.3615 39.0686C39.3615 39.0686 35.307 31.5173 35.307 29.0001C35.3069 26.483 39.3613 18.9316 39.3613 18.9316C39.3613 18.9316 31.81 22.9861 29.2929 22.9861C26.7757 22.9861 19.2243 18.9316 19.2243 18.9316C19.2243 18.9316 23.2788 26.483 23.2789 29.0001C23.2789 31.5173 19.2245 39.0686 19.2245 39.0686C19.2245 39.0686 26.7758 35.0142 29.293 35.0142Z" fill="#1B1B1B"/>
    <path fill-rule="evenodd" clip-rule="evenodd" d="M81.2658 50C92.8638 50 102.266 40.598 102.266 29C102.266 17.402 92.8634 8 81.2655 8C69.6675 8 60.2655 17.402 60.2656 29C60.2657 40.598 69.6678 50 81.2658 50ZM81.2656 35.0142C83.7827 35.0142 91.3341 39.0686 91.3341 39.0686C91.3341 39.0686 87.2796 31.5173 87.2796 29.0001C87.2796 26.483 91.334 18.9316 91.334 18.9316C91.334 18.9316 83.7826 22.9861 81.2655 22.9861C78.7484 22.9861 71.197 18.9316 71.197 18.9316C71.197 18.9316 75.2515 26.483 75.2515 29.0001C75.2515 31.5173 71.1972 39.0686 71.1972 39.0686C71.1972 39.0686 78.7485 35.0142 81.2656 35.0142Z" fill="#1B1B1B"/>
    <rect x="28.2656" y="49" width="54" height="1" fill="#1B1B1B"/>
</svg>